<svg version="1" xmlns="http://www.w3.org/2000/svg" width="1421.333" height="1421.333" viewBox="0 0 1066.000000 1066.000000"><path d="M157.3 4.8l-2.3.3v1050.5l35.8-.2c174.2-1 258.4-1.9 282.7-2.9 13.7-.6 28.6-1.5 32.4-2 1.8-.3 5.9-.8 9-1.1 3.1-.3 6.7-.7 8.1-1 1.4-.2 4.1-.7 6-1 4.1-.5 6.6-1 10-1.8 1.4-.3 3.7-.8 5.3-1 1.5-.3 3.5-.7 4.5-1 .9-.3 2.8-.7 4.2-1 1.4-.2 4.5-.9 7-1.6 2.5-.7 5.2-1.3 6-1.5.8-.2 3.3-.8 5.5-1.3 2.2-.6 5.1-1.3 6.5-1.6 1.4-.3 4.1-1 6-1.6 1.9-.6 4.6-1.3 6-1.6 8.6-1.8 36.4-11.6 55.4-19.7 16.2-6.9 41.6-19.9 48.9-24.9 1.5-1.1 2.7-1.7 2.7-1.3 0 .3.6.1 1.3-.5.6-.6 6.1-4.2 12.2-8.1 6-3.8 11.2-7.3 11.5-7.7.3-.4 2.9-2.3 5.7-4.2 2.9-1.9 5.3-3.8 5.3-4.3 0-.4.5-.7 1-.7 1 0 11.9-8.6 20.9-16.5 12.1-10.5 28.5-27 38.3-38.6 2.1-2.4 4.9-5.8 6.4-7.4 6-7 22.5-29.3 26.9-36.4.5-.9 1.9-3 3.1-4.6 1.1-1.7 2.4-3.7 2.7-4.5.4-.8 2.1-3.5 3.7-6s3.7-6.1 4.7-8c.9-1.9 2.3-4.1 3-4.8.7-.8 1.1-1.7.8-2.2-.3-.5-.1-1 .3-1.2 1.1-.4 16.3-30.8 15.5-30.8-.3 0 .1-1 .9-2.2.8-1.3 2.9-5.9 4.7-10.3 1.8-4.4 3.7-8.9 4.2-10 1-2.2 5.1-13.4 5.6-15 .1-.6 2.1-6.4 4.3-13 6.5-19.1 15.5-53.6 18.4-70 .3-1.7.8-4.1 1.1-5.5.3-1.4.7-3.9 1-5.5.3-1.7 1-5.3 1.5-8 1.2-6.3 1.8-9.9 2.4-15 1.3-10.2 1.6-12.9 2-15.4.8-4.5 1.6-10.4 2.1-16.1.3-3 .8-7.3 1-9.5 2.6-26.2 2.6-106 0-148-.3-4.4-.7-11.2-1-15-.4-7.4-1.1-14.5-2.1-23.5-.4-3-.8-7.3-1-9.5-.3-2.1-.7-5.1-.9-6.5-.3-1.4-.8-4.1-1.1-6-.4-3.1-1.2-7.2-2.9-16.5-.9-4.6-1.5-7.3-3-13.7-.7-3.2-1.4-6.2-1.5-6.6-.2-1.6-1-5-2.5-11.2-.8-3.6-1.7-7.4-2-8.5-.7-3.3-6.5-23.9-7.2-25.5-.3-.8-.7-2-.8-2.6-.8-3.7-11.7-33.6-14.6-40.1-1-2.4-1.9-4.5-1.9-4.8 0-.4-3.3-7.8-7.7-17.2-1.3-2.9-2.5-5.6-2.5-6-.1-.4-1.1-2.4-2.2-4.3-2.5-4-4.4-8.2-4.2-9.1 0-.4-.6-1.5-1.5-2.5-.9-1.1-3.1-4.8-5-8.4-1.8-3.6-3.6-6.7-3.9-7-.6-.5-6.7-10.6-8.5-14.1-.5-1-1.3-1.9-1.7-1.9-.5 0-.8-.4-.8-1 0-1.4-21.6-31.6-25-35-.3-.3-3.4-3.9-7-8-7.8-9.1-16.8-18.7-23.4-24.9-2.7-2.5-6.3-6-8-7.6-1.8-1.7-5.9-5.2-9.2-7.9-3.2-2.7-6.3-5.4-6.9-6-3-3.4-37.7-28-41.5-29.4-.8-.3-3.3-1.8-5.5-3.3-5.8-3.8-34.4-19-36.5-19.4-.3-.1-3.1-1.3-6.3-2.8-3.2-1.5-6-2.7-6.2-2.7-.3 0-2.4-.8-4.8-1.9-9.6-4.3-37.7-14.4-37.7-13.6 0 .2-1.5-.2-3.2-1-7.8-3.2-50-13.3-62.8-15.1-1.9-.2-4.2-.7-5.1-1-.9-.2-3.4-.7-5.5-1-2.2-.3-4.8-.7-5.9-.9-5.7-1.1-15.3-2.3-23-3.1-17.5-1.7-35.3-2.7-47.7-2.8-6-.1-10.8-.3-10.8-.6s-7.3-.6-16.3-.6c-8.9-.1-39.6-.5-68.2-.8-28.6-.3-85.7-.9-126.9-1.2-41.3-.3-75.2-.6-75.5-.8-.3-.1-1.6 0-2.8.2zm304.2 147.7c2.8.4 5.7.8 6.5.9 7.5 1.4 10.1 2 14.1 3.2 2.5.8 5.5 1.6 6.6 1.8 3.1.6 20.1 9.2 23.8 12 1.9 1.4 3.8 2.6 4.3 2.6 1.1 0 18.1 16.6 22.2 21.5 3.2 4 12 18.2 12 19.5 0 .5.5 1 1 1 .6 0 1 .5 1 1.1 0 .5.9 2.9 1.9 5.3 2.6 5.7 6.2 14.7 6.6 16.6 1 4.8 1.9 7.6 2.8 8.7.5.7.7 1.3.4 1.3-.3 0 .1 2.4.8 5.2.7 2.9 1.6 7.3 1.9 9.8.3 2.5.8 5.6 1.1 7 .3 1.4.7 5.6 1 9.5.7 9.2 1.6 22.9 1.9 28.1l.2 4.1-137.6-.1-137.5-.1.1-7c.1-8 1.2-16.7 2.5-20.2.5-1.3.6-2.3.3-2.3-.4 0-.1-.7.6-1.5s1-1.5.7-1.5c-.9 0 5.7-18.5 10.4-29.2 5.1-11.8 16.4-32.6 18.8-34.8.4-.3 2.4-3.2 4.6-6.4 3.8-5.6 17.6-20.4 24-25.6 4.5-3.7 13.4-10 14.2-10 .3 0 1.4-.6 2.2-1.4 4-3.6 32.1-15.8 32.1-14 0 .4.6.2 1.3-.3 1.9-1.6 9.9-3.4 21.2-4.8 2.7-.3 5-.7 5.1-.8.5-.4 22.3.2 26.9.8zm150.9 9.7c2.2 1.3 4.3 2.6 4.4 3 .2.5.8.8 1.2.8 1.2 0 10.4 6.2 10.8 7.2.2.4.8.8 1.3.8 1.5 0 10.9 7 23.3 17.5 11.7 9.8 29.7 28.7 38.3 40 11.9 15.7 21.1 29.6 29.5 44.3 4 7.1 9.2 17.7 9 18.4-.1.5.3.8 1 .8.6 0 .8.3.5.7-.4.3 0 1.5 1 2.5.9 1 1.4 1.8 1 1.8-.3 0 .8 2.7 2.4 6 1.6 3.3 2.9 6.6 2.9 7.3 0 .7.4 1.7.9 2.2 1.9 2.1 13.4 35.5 14.6 42.4.3 1.9.9 3.9 1.3 4.5.3.6.7 1.5.8 2.1.1.5.5 2.3.9 4 .3 1.6.8 4.1 1.1 5.4.3 1.4.7 2.8.9 3.1.2.4.7 2.2 1 4.1.3 1.9 1 5 1.5 6.9.5 1.9 1.2 5.1 1.4 7 .3 1.9.8 4.8 1.1 6.5.5 2.8 1.5 8.5 3.1 18 .3 2.2.8 5.3.9 7 .2 1.6.6 4.8.9 7 2.3 18.1 2.9 24.4 4.1 43.5 1.2 19.2 1.4 24.3 1.4 47 0 19.8-.4 41.5-.8 41.5-.1 0-.4 4.5-.6 10-.3 5.5-.7 12.5-1 15.5-.4 3-.8 8.6-1.1 12.5-.7 11.8-2 21.4-3 22.4s-7.2-3.2-13.9-9.5c-3.9-3.6-9.6-8.8-12.9-11.7-3.2-2.9-7.1-6.3-8.6-7.7-1.5-1.4-3.9-3.4-5.5-4.5-1.5-1.1-3.2-2.5-3.9-3-2.1-2-15.1-11.1-21.6-15.2-26.3-16.6-60.2-33.6-117.5-58.8-15.9-7-30.8-13.5-33-14.5-2.2-1-6.9-3-10.5-4.5-3.6-1.5-8.3-3.5-10.5-4.5-2.2-1-10.5-4.6-18.5-8-8-3.4-16.5-7.1-19-8.2-2.5-1.1-7.4-3.3-11-4.8-3.6-1.6-18.4-8.1-33-14.5-36.5-16.1-70.6-32.9-74-36.5-.3-.3-1.6-1.1-3-1.9-2.5-1.4-22.1-15.1-23-16.1-.3-.3-2.5-2.1-5-4-7.2-5.6-7.9-6.2-14.8-12.7-3.6-3.5-6.3-6.6-5.9-6.9.9-.9 13.6-1.4 46.7-1.9 16.2-.2 29.7-.5 30-.6.3-.1 1 0 1.5.1.6.1 5.5.2 11 0 5.5-.1 13.4-.1 17.5-.1 4.1.1 8 .2 8.5.1.6 0 47.2-.1 103.7-.2l102.7-.2 1.4-6c.7-3.4 1.3-8.7 1.3-11.9-.1-3.1.2-5.7.6-5.7.4 0 .4-1 0-2.3-.4-1.2-.6-3.6-.5-5.2.6-5.8.5-13.6-.1-14.2-.3-.4-.1-1.2.5-2 .6-.7.8-1.3.3-1.3s-.9-5.1-1-11.3c-.1-11.6-1.1-31.3-2-38.3-1.7-13.2-2.3-16.9-3.9-24.4-.3-1.4-.7-3.4-.9-4.5-.3-1.1-.9-4-1.5-6.5-.7-2.5-1.4-5.6-1.7-7-.9-4.6-8.6-26.3-11.6-33-1.6-3.6-6.5-13.6-10.9-22.2-7-14-9.2-19.8-7.3-19.8.4 0 2.5 1 4.8 2.2zM298.2 532c9.1 4.7 19.8 10.4 24.6 13.2 1.7 1.1 3.2 1.6 3.2 1.3 0-.4.6-.2 1.3.4 1.4 1.1 15 7.9 28.7 14.3 4.1 2 12.5 5.9 18.5 8.7l11 5.2v10.2c0 5.6.4 10.8.9 11.4.5.8.4 1.3-.3 1.3s-1 .4-.7.9c.4.5.8 16.8 1.1 36.3 1.2 75.9 2 112.1 3 126.3 1.4 20.5 2.1 27.1 3.6 34.8.6 2.8 1.2 6.5 1.4 8 .2 1.6.9 4.3 1.4 6 .6 1.8 2.2 7.2 3.7 12.2 9.6 33.2 27.2 63.7 48.5 84 7.8 7.5 18.1 15.5 19.9 15.5.5 0 1 .3 1 .8 0 .4 3.9 2.7 8.8 5.1 11.2 5.6 18.3 10.1 17.7 11.1-.4.6-3.9 1.4-11.5 2.5-11.1 1.6-36.9 3.1-70.5 3.9-25.2.7-123.4.8-124.4.2-.4-.3-.7-84.6-.6-187.3.3-224.1.3-230.3 1.1-230.3.3 0 4.2 1.8 8.6 4zM465 609.7c1.9.9 5.1 2.3 7 3.1 1.9.9 3.7 1.7 4 1.7 1.2.3 10.8 4.6 22 9.7 3.6 1.7 7 3.1 7.5 3.3.6.1 3.9 1.5 7.5 3.2 3.6 1.7 8.8 4 11.5 5.3 16 7.2 46.5 22.1 58 28.3 13.3 7.2 17 9.2 17.5 9.7.3.3 2.5 1.6 5 2.9 5.4 2.9 27.6 17.6 29.7 19.7.8.7 1.8 1.4 2.3 1.4 1 0 21.8 20.5 24.9 24.5 9.9 13 19.3 31.1 23.9 46 6.5 21 5.9 34.9-2.5 54.5-3.6 8.2-11 21.2-12.5 21.8-.5.2-.8 1-.8 1.7s-.3 1.5-.7 1.7c-.5.1-2.6 2.5-4.8 5.3-5.7 7-15.1 16-21 19.9-5.9 4-12.8 7.7-14.9 8-.8.1-2.1.8-3 1.5-.9.7-1.6 1.1-1.6.7 0-.3-1.6 0-3.5.8s-3.5 1.2-3.5.9c0-.3-.7 0-1.5.7s-1.5 1-1.5.7c0-.3-1.5-.1-3.2.4-1.8.5-4.4 1.1-5.8 1.4-1.4.3-3.5.7-4.7.9-5.7 1.2-18.3 2.7-21 2.6-.7 0-2.1-.1-3-.1-1-.1-2.9 0-4.3.1-2.9.3-10.9-.6-17.7-2-2.6-.6-5.7-1.2-6.8-1.4-6.1-1.3-8.1-1.9-14.7-4.2-30.6-11-52.3-33.5-65.6-68-7.9-20.5-10.6-34.9-11.7-61.9-1.2-27.8-2.7-147.3-1.9-148.6.4-.7 2.8.1 11.4 3.8z"/></svg>