<?xml version="1.0" standalone="no"?>
<!DOCTYPE svg PUBLIC "-//W3C//DTD SVG 20010904//EN"
 "http://www.w3.org/TR/2001/REC-SVG-20010904/DTD/svg10.dtd">
<svg version="1.0" xmlns="http://www.w3.org/2000/svg"
 width="290.000000pt" height="400.000000pt" viewBox="0 0 290.000000 400.000000"
 preserveAspectRatio="xMidYMid meet">

<g transform="translate(0.000000,400.000000) scale(0.100000,-0.100000)"
fill="#000000" stroke="none">
<path d="M30 2010 l0 -1971 633 4 c689 4 710 6 953 67 302 76 573 232 771 445
269 287 427 680 474 1178 17 184 7 584 -19 752 -124 791 -565 1286 -1279 1436
-222 46 -290 51 -925 56 l-608 5 0 -1972z m1202 1409 c206 -44 339 -228 355
-490 l6 -99 -516 0 -517 0 0 28 c0 108 90 309 181 406 129 137 308 194 491
155z m583 -72 c209 -141 377 -387 461 -676 66 -228 94 -536 75 -822 -6 -98
-14 -186 -17 -194 -5 -12 -25 2 -81 56 -150 142 -291 219 -824 447 -430 185
-513 224 -604 285 -73 49 -165 126 -165 138 0 5 264 9 604 9 l604 0 6 23 c11
43 6 293 -9 383 -20 127 -49 214 -105 321 -54 103 -54 103 55 30z m-1199
-1369 c43 -24 123 -64 179 -89 l100 -47 6 -378 c6 -368 11 -433 44 -544 57
-195 168 -342 307 -408 31 -15 57 -30 57 -33 2 -16 -226 -29 -489 -29 l-290 0
0 785 c0 432 2 785 4 785 3 0 39 -19 82 -42z m715 -326 c295 -131 452 -219
548 -306 96 -88 167 -241 159 -340 -9 -111 -110 -256 -211 -305 -68 -33 -182
-54 -255 -47 -208 21 -334 134 -394 353 -19 70 -22 110 -26 401 l-4 322 24 -9
c12 -5 84 -36 159 -69z"/>
</g>
</svg>
